<?xml version="1.0" standalone="no"?>
<!DOCTYPE svg PUBLIC "-//W3C//DTD SVG 1.1//EN" "http://www.w3.org/Graphics/SVG/1.1/DTD/svg11.dtd" >
<!--
2013-9-30: Created.
-->
<svg>
<metadata>
Created by iconfont
</metadata>
<defs>

<font id="iconfont" horiz-adv-x="1024" >
  <font-face
    font-family="iconfont"
    font-weight="500"
    font-stretch="normal"
    units-per-em="1024"
    ascent="896"
    descent="-128"
  />
    <missing-glyph />
    
    <glyph glyph-name="shouye" unicode="&#58889;" d="M512 757.44l320-293.44v-453.44H192V464l320 293.44m0 64a64 64 0 0 1-43.2-16.64L148.8 512A64 64 0 0 1 128 464v-453.44a64 64 0 0 1 64-64h640a64 64 0 0 1 64 64V464a64 64 0 0 1-20.8 48l-320 293.44a64 64 0 0 1-43.2 16zM640 32a32 32 0 0 0-32 32v160a32 32 0 0 1-32 32h-128a32 32 0 0 1-32-32v-160a32 32 0 0 0-64 0v160a96 96 0 0 0 96 96h128a96 96 0 0 0 96-96v-160a32 32 0 0 0-32-32z"  horiz-adv-x="1024" />

    
    <glyph glyph-name="dianhua" unicode="&#58890;" d="M760 115.84a35.52 35.52 0 0 0-18.88-45.44c-51.84-30.08-189.76-109.76-381.76 224S305.28 704 357.12 736a36.48 36.48 0 0 0 48.96-6.08l65.92-114.56a35.2 35.2 0 0 0-18.24-45.12l-32-17.92a64 64 0 0 1-23.36-87.36l128-221.76a64 64 0 0 1 87.36-23.36l32 17.6a36.16 36.16 0 0 0 48.64-6.4l65.92-114.56m55.68 32l-66.56 113.92a99.2 99.2 0 0 1-135.68 30.08l-32-17.92-128 221.76 32 17.92a98.88 98.88 0 0 1 41.92 132.48l-66.24 114.56a98.88 98.88 0 0 1-136.32 29.76c-135.36-78.4-194.56-229.44-21.12-529.92S637.76-64 773.12 15.04a98.88 98.88 0 0 1 42.56 132.8zM646.72 541.12a26.56 26.56 0 0 0-7.04 0 32 32 0 0 0-24 38.4 204.48 204.48 0 0 1-46.08 181.76 32 32 0 1 0 48 42.24 268.48 268.48 0 0 0 60.48-237.44 32 32 0 0 0-31.36-24.96z"  horiz-adv-x="1024" />

    
    <glyph glyph-name="chakan" unicode="&#58891;" d="M512 669.76c224 0 384-170.88 384-285.76s-160-285.76-384-285.76C305.28 98.24 128 256 128 384c0 114.88 160 285.76 384 285.76m0 64C264.64 733.76 64 544 64 384s200.64-349.76 448-349.76S960 224 960 384 759.36 733.76 512 733.76zM512 496a112 112 0 1 0-112-112 112 112 0 0 0 112 112m0 64a176 176 0 1 1 176-176 176 176 0 0 1-176 176z"  horiz-adv-x="1024" />

    
    <glyph glyph-name="dingwei" unicode="&#58892;" d="M512 576a96 96 0 1 0-96-96 96 96 0 0 0 96 96m0 64a160 160 0 1 1 160-160 160 160 0 0 1-160 160zM512 832A349.12 349.12 0 0 1 162.88 481.92a341.12 341.12 0 0 1 8.64-77.12c0-4.8 2.24-9.6 3.52-14.4s2.24-6.72 3.2-10.24l3.84-11.84c1.92-5.76 4.16-11.2 6.4-16.96l4.8-11.52c2.56-6.08 5.76-12.16 8.64-17.92l4.8-9.28A265.6 265.6 0 0 1 224 288l9.92-13.44 228.16-309.76a64 64 0 0 1 103.04 0l224 304.64 3.2 4.16 10.56 14.4a317.76 317.76 0 0 1 21.12 36.48c2.88 5.76 5.76 11.2 8.64 17.28v2.56l5.76 14.72c1.92 5.12 3.84 10.24 5.44 15.36l4.8 15.68 3.84 16a338.24 338.24 0 0 1 8.64 76.8A348.8 348.8 0 0 1 512 832z m268.8-444.8a291.2 291.2 0 0 0-40.32-74.88l-118.4-160L512 0l-110.08 149.44-116.48 159.36-9.92 13.76a289.6 289.6 0 0 0-32 64 264.32 264.32 0 0 0-15.68 74.88v20.8a285.12 285.12 0 0 0 570.24 0v-20.48a278.08 278.08 0 0 0-17.28-75.52z"  horiz-adv-x="1024" />

    
    <glyph glyph-name="fenxiang" unicode="&#58893;" d="M666.24 140.48a38.08 38.08 0 0 0-10.24 1.6l-314.24 104.96a32 32 0 0 0 20.16 60.8l314.56-104.96a32 32 0 0 0-10.24-62.4zM334.08 381.44a32 32 0 0 0-20.48 56.32L514.56 608a32 32 0 1 0 41.28-48.64l-200.96-170.24a32 32 0 0 0-20.8-7.68zM224 416a96 96 0 1 0-96-96 96 96 0 0 0 96 96m0 64a160 160 0 1 1 160-160 160 160 0 0 1-160 160zM640 768a96 96 0 1 0-96-96 96 96 0 0 0 96 96m0 64a160 160 0 1 1 160-160 160 160 0 0 1-160 160zM800 224a96 96 0 1 0-96-96 96 96 0 0 0 96 96m0 64a160 160 0 1 1 160-160 160 160 0 0 1-160 160z"  horiz-adv-x="1024" />

    
    <glyph glyph-name="huiyuan" unicode="&#58894;" d="M749.76 725.76l134.08-262.72L512 6.72 140.16 463.04l134.08 262.72h475.52m0 64H274.24a64 64 0 0 1-56.96-34.88l-134.4-262.72a64 64 0 0 1 7.68-69.44l371.84-456.32a64 64 0 0 1 99.2 0l371.84 456.32a64 64 0 0 1 7.68 69.44l-134.4 262.72a64 64 0 0 1-56.96 34.88zM512 148.16a64 64 0 0 0-49.6 23.36L256 426.24a32 32 0 0 0 49.6 40.64l207.68-256 207.68 256A32 32 0 1 0 768 426.24l-207.68-256a64 64 0 0 0-48.32-22.08z"  horiz-adv-x="1024" />

    
    <glyph glyph-name="dengdai" unicode="&#58895;" d="M768 768v-67.52a192 192 0 0 0-47.36-126.08l-110.72-128a96 96 0 0 1 0-126.08l110.72-128a192 192 0 0 0 47.36-124.8V0H256v69.12a192 192 0 0 0 47.68 128L413.44 320a96 96 0 0 1 0 128l-109.76 124.8A192 192 0 0 0 256 698.88V768h512m0 64H256a64 64 0 0 1-64-64v-69.12a256 256 0 0 1 64-168.96l109.76-124.8a32 32 0 0 0 0-42.24L256 238.08a256 256 0 0 1-64-168.96V0a64 64 0 0 1 64-64h512a64 64 0 0 1 64 64v67.52a256 256 0 0 1-64 168l-110.72 128a32 32 0 0 0 0 42.24l110.72 128a256 256 0 0 1 64 168V768a64 64 0 0 1-64 64zM352 143.36m31.36 0l257.28 0q31.36 0 31.36-31.36l0-1.28q0-31.36-31.36-31.36l-257.28 0q-31.36 0-31.36 31.36l0 1.28q0 31.36 31.36 31.36Z"  horiz-adv-x="1024" />

    
    <glyph glyph-name="dingdan" unicode="&#58896;" d="M832 768v-768H192V768h640m0 64H192a64 64 0 0 1-64-64v-768a64 64 0 0 1 64-64h640a64 64 0 0 1 64 64V768a64 64 0 0 1-64 64zM288 496m32 0l384 0q32 0 32-32l0 0q0-32-32-32l-384 0q-32 0-32 32l0 0q0 32 32 32ZM288 336m32 0l384 0q32 0 32-32l0 0q0-32-32-32l-384 0q-32 0-32 32l0 0q0 32 32 32Z"  horiz-adv-x="1024" />

    
    <glyph glyph-name="lishishijian" unicode="&#58897;" d="M512 768A384 384 0 1 0 128 384 384 384 0 0 0 512 768m0 64a448 448 0 1 1 448-448A448 448 0 0 1 512 832zM512 608a32 32 0 0 1-32-32v-176.96L343.36 288A32 32 0 1 1 384 237.44l96 78.72 64 52.48V576a32 32 0 0 1-32 32z"  horiz-adv-x="1024" />

    
    <glyph glyph-name="goumai" unicode="&#58898;" d="M879.36 640H160l-19.2 96-6.4 37.44a32 32 0 0 1-32 26.56 32 32 0 0 1-32-38.08l40.32-220.48L182.4 148.48a64 64 0 0 1 64-52.48h535.04a64 64 0 0 1 62.4 49.28l97.6 416A64 64 0 0 1 879.36 640z m-97.92-480H245.44l-64 350.08-5.44 32-2.24 11.52-3.84 22.4h709.44zM328.64 19.52m-48 0a48 48 0 1 1 96 0 48 48 0 1 1-96 0ZM680.64 19.52m-48 0a48 48 0 1 1 96 0 48 48 0 1 1-96 0ZM295.04 288m32 0l369.92 0q32 0 32-32l0 0q0-32-32-32l-369.92 0q-32 0-32 32l0 0q0 32 32 32Z"  horiz-adv-x="1024" />

    
    <glyph glyph-name="kefu" unicode="&#58899;" d="M512 832A448 448 0 0 1 64 384v-96h64v96a384 384 0 0 0 768 0v-96h64v8 86.72A448 448 0 0 1 512 832zM224 283.2a64 64 0 0 0 64-64V128a64 64 0 0 0-64-64H128v219.2h96m0 64H128a64 64 0 0 1-64-64V64a64 64 0 0 1 64-64h96a128 128 0 0 1 128 128v91.2a128 128 0 0 1-128 128zM896 283.2V64h-96a64 64 0 0 0-64 64v91.2a64 64 0 0 0 64 64h96m0 64h-96a128 128 0 0 1-128-128V128a128 128 0 0 1 128-128h96a64 64 0 0 1 64 64v219.2a64 64 0 0 1-64 64zM832 237.44m0-32l0-64q0-32-32-32l0 0q-32 0-32 32l0 64q0 32 32 32l0 0q32 0 32-32ZM256 237.44m0-32l0-64q0-32-32-32l0 0q-32 0-32 32l0 64q0 32 32 32l0 0q32 0 32-32Z"  horiz-adv-x="1024" />

    
    <glyph glyph-name="saoma" unicode="&#58900;" d="M352 800H192a96 96 0 0 1-96-96v-160a32 32 0 0 1 64 0V704a32 32 0 0 0 32 32h160a32 32 0 0 1 0 64zM352 32H192a32 32 0 0 0-32 32v160a32 32 0 0 1-64 0v-160a96 96 0 0 1 96-96h160a32 32 0 0 1 0 64zM896 256a32 32 0 0 1-32-32v-160a32 32 0 0 0-32-32h-160a32 32 0 0 1 0-64h160a96 96 0 0 1 96 96v160a32 32 0 0 1-32 32zM832 800h-161.92a32 32 0 0 1 0-64H832a32 32 0 0 0 32-32v-160a32 32 0 0 1 64 0V704a96 96 0 0 1-96 96zM224 416m31.36 0l513.28 0q31.36 0 31.36-31.36l0-1.28q0-31.36-31.36-31.36l-513.28 0q-31.36 0-31.36 31.36l0 1.28q0 31.36 31.36 31.36Z"  horiz-adv-x="1024" />

    
    <glyph glyph-name="shezhi" unicode="&#58901;" d="M697.92 706.24L883.84 384l-185.92-322.24H326.08L140.16 384l185.92 322.24h371.84m0 64H326.08a64 64 0 0 1-55.36-32L84.48 416a64 64 0 0 1 0-64l186.24-322.24a64 64 0 0 1 55.36-32h371.84a64 64 0 0 1 55.36 32L939.52 352a64 64 0 0 1 0 64L753.28 738.24a64 64 0 0 1-55.36 32zM512 480a96 96 0 1 0-96-96 96 96 0 0 0 96 96m0 64a160 160 0 1 1 160-160 160 160 0 0 1-160 160z"  horiz-adv-x="1024" />

    
    <glyph glyph-name="shoucang" unicode="&#58902;" d="M512 707.52l84.16-170.56A99.2 99.2 0 0 1 672 482.88l188.16-27.2-136-132.8a98.56 98.56 0 0 1-28.48-87.36l32-187.52-168.64 88.64a99.2 99.2 0 0 1-91.52 0L297.6 48l32 187.52a98.56 98.56 0 0 1-28.48 87.36l-135.68 132.8 188.16 27.2a99.2 99.2 0 0 1 74.24 54.08L512 707.52m0 100.8a34.24 34.24 0 0 1-32-19.2l-110.4-224a34.88 34.88 0 0 0-26.24-18.88L96 510.4a34.88 34.88 0 0 1-19.2-59.2L256 276.8a34.24 34.24 0 0 0 9.92-30.4L224 0a34.24 34.24 0 0 1 33.92-40.32 38.08 38.08 0 0 1 16.32 3.84l221.76 116.48a35.2 35.2 0 0 0 32 0l221.12-116.48a38.08 38.08 0 0 1 16.32-3.84A34.24 34.24 0 0 1 800 0l-42.24 246.4a34.24 34.24 0 0 0 9.92 30.4l178.88 174.4a34.88 34.88 0 0 1-19.2 59.2l-247.04 35.84a34.88 34.88 0 0 0-26.24 18.88l-110.08 224a34.24 34.24 0 0 1-32 19.2zM446.08 256a32 32 0 0 0-22.72 9.6l-105.6 107.52a32 32 0 0 0 45.76 44.8l105.6-107.52a32 32 0 0 0 0-45.44 32 32 0 0 0-23.04-8.96z"  horiz-adv-x="1024" />

    
    <glyph glyph-name="sousuo" unicode="&#58903;" d="M471.68 153.6a256 256 0 0 0-254.4 226.88 32 32 0 0 0 64 7.04 189.12 189.12 0 0 1 55.04-113.6A194.24 194.24 0 0 1 480 217.92a32 32 0 0 0 2.88-64zM471.68 809.6a400 400 0 1 1 273.6-690.88l157.44-157.44a32 32 0 0 1 45.44 0 32 32 0 0 1 0 45.12l-160 160a399.68 399.68 0 0 1-316.48 643.2z m0-736a336.64 336.64 0 1 0 237.44 98.56 333.44 333.44 0 0 0-237.44-98.56z"  horiz-adv-x="1024" />

    
    <glyph glyph-name="tishi" unicode="&#58904;" d="M512 768A384 384 0 1 0 128 384 384 384 0 0 0 512 768m0 64a448 448 0 1 1 448-448A448 448 0 0 1 512 832zM464 632m48 0l0 0q48 0 48-48l0-256q0-48-48-48l0 0q-48 0-48 48l0 256q0 48 48 48ZM512 184m-48 0a48 48 0 1 1 96 0 48 48 0 1 1-96 0Z"  horiz-adv-x="1024" />

    
    <glyph glyph-name="tupian" unicode="&#58905;" d="M896 768H128a64 64 0 0 1-64-64v-640a61.76 61.76 0 0 1 0-13.44 64 64 0 0 1 44.48-47.36A56.64 56.64 0 0 1 128 0h768a64 64 0 0 1 64 64V704a64 64 0 0 1-64 64z m0-704H128V704h768zM320 544a32 32 0 1 0-32-32 32 32 0 0 0 32 32m0 64a96 96 0 1 1 96-96 96 96 0 0 1-96 96zM804.48 429.76a64 64 0 0 1-90.56 0L512 228.8l-89.28 89.28a64 64 0 0 1-90.56 0L128 112.96V64h41.6l208.64 208.96 89.28-89.28L348.16 64h90.56L512 138.24l45.12 45.44L759.04 384 896 248v90.24z"  horiz-adv-x="1024" />

    
    <glyph glyph-name="shanchu" unicode="&#58906;" d="M706.88-64H317.12a96 96 0 0 0-96 91.52L192 627.84a32 32 0 1 0 64 2.88L285.12 32a32 32 0 0 1 32-30.4h389.76a32 32 0 0 1 32 30.4L768 633.28a32 32 0 0 0 32 32 32 32 0 0 0 30.4-32l-27.84-601.6A96 96 0 0 0 706.88-64zM896 606.4H128a32 32 0 0 0 0 64h768a32 32 0 0 0 0-64zM704 616.32a32 32 0 0 0-32 32V704a64 64 0 0 1-64 64h-192a64 64 0 0 1-64-64v-55.68a32 32 0 0 0-64 0V704a128 128 0 0 0 128 128h192a128 128 0 0 0 128-128v-55.68a32 32 0 0 0-32-32zM350.72 158.08m32 0l258.56 0q32 0 32-32l0 0q0-32-32-32l-258.56 0q-32 0-32 32l0 0q0 32 32 32Z"  horiz-adv-x="1024" />

    
    <glyph glyph-name="tongzhi" unicode="&#58907;" d="M672 721.6v-675.2l-337.6 192a126.08 126.08 0 0 1-64 16.96H128V512h143.04a126.08 126.08 0 0 1 64 16.96L672 721.6m0 64a64 64 0 0 1-32-8.64l-337.28-192a64 64 0 0 0-32-8.32H128a64 64 0 0 1-64-64v-256a64 64 0 0 1 64-64h143.04a64 64 0 0 0 32-8.32l337.28-192a64 64 0 0 1 96 55.68V721.6a64 64 0 0 1-64 64zM896 189.76a29.44 29.44 0 0 0-11.52 2.24 32 32 0 0 0-18.24 41.28 416 416 0 0 1 0 299.52 32 32 0 1 0 59.52 23.04 478.08 478.08 0 0 0 0-345.6 32 32 0 0 0-29.76-20.48z"  horiz-adv-x="1024" />

    
    <glyph glyph-name="xiaoxi" unicode="&#58908;" d="M320.64 384m0 32l0 64q0 32 32 32l0 0q32 0 32-32l0-64q0-32-32-32l0 0q-32 0-32 32ZM480 384m0 32l0 64q0 32 32 32l0 0q32 0 32-32l0-64q0-32-32-32l0 0q-32 0-32 32ZM640 384m0 32l0 64q0 32 32 32l0 0q32 0 32-32l0-64q0-32-32-32l0 0q-32 0-32 32ZM512 832C264.64 832 64 659.84 64 448c0-141.76 89.6-265.6 224-332.16v-146.56a32 32 0 0 1 48-27.84L545.6 64c231.68 14.72 416 180.48 416 384C960 659.84 759.36 832 512 832z m234.24-638.08A431.04 431.04 0 0 0 534.4 128a32 32 0 0 1-14.4-4.16l-91.84-53.76L352 24.64v111.04a32 32 0 0 1-19.84 29.44A378.88 378.88 0 0 0 288 188.16 307.52 307.52 0 0 0 128 448C128 624.32 300.16 768 512 768s384-143.68 384-320a305.6 305.6 0 0 0-149.76-254.08z"  horiz-adv-x="1024" />

    
    <glyph glyph-name="wode" unicode="&#58909;" d="M641.6 425.92l5.12 3.2a224 224 0 1 1-269.44 0l5.12-3.2A381.76 381.76 0 0 1 128 66.24 130.24 130.24 0 0 1 258.24-64h507.2A130.56 130.56 0 0 1 896 66.24a381.76 381.76 0 0 1-254.4 359.68zM352 608a160 160 0 1 0 64-128 160 160 0 0 0-64 128z m413.44-608H258.24A66.24 66.24 0 0 0 192 66.24 317.76 317.76 0 0 0 509.44 384h4.8A318.08 318.08 0 0 0 832 66.24 66.56 66.56 0 0 0 765.44 0zM480 320m32 0l0 0q32 0 32-32l0-96q0-32-32-32l0 0q-32 0-32 32l0 96q0 32 32 32Z"  horiz-adv-x="1024" />

    
    <glyph glyph-name="xiangji" unicode="&#58910;" d="M718.72 627.2l-32 96A64 64 0 0 1 625.6 768h-227.52a64 64 0 0 1-60.8-43.84l-32-96-192-41.28A64 64 0 0 1 64 524.48V64a64 64 0 0 1 64-64h768a64 64 0 0 1 64 64V524.16a64 64 0 0 1-50.88 64zM896 64H128V498.56a32 32 0 0 0 25.28 32l128 27.84 54.4 11.52a32 32 0 0 1 23.68 21.12l9.92 29.44 8 24 20.8 59.52h227.84l20.48-61.44 7.68-22.72 10.24-30.4a32 32 0 0 1 23.68-21.12l54.4-11.52 128-27.2a32 32 0 0 0 25.6-32zM512 448a96 96 0 1 0-96-96 96 96 0 0 0 96 96m0 64a160 160 0 1 1 160-160 160 160 0 0 1-160 160z"  horiz-adv-x="1024" />

    
    <glyph glyph-name="zan" unicode="&#58911;" d="M501.76 736h1.6a99.52 99.52 0 0 0 89.92-64 102.08 102.08 0 0 0 3.52-59.52l-19.2-85.12-8.96-39.04a32 32 0 0 1 32-39.04h207.36a64 64 0 0 0 64-74.88L810.24 32H128V401.28l25.92 6.4a397.76 397.76 0 0 1 285.44 272l5.44 18.24A61.12 61.12 0 0 0 501.76 736m0 64A124.8 124.8 0 0 1 384 718.08l-6.08-19.84a332.16 332.16 0 0 0-239.36-228.16l-25.92-6.4a64 64 0 0 1-48.64-64V32a64 64 0 0 1 64-64h682.24a64 64 0 0 1 64 52.8l60.16 344.64a128 128 0 0 1-126.08 150.08H640l19.52 87.68A162.56 162.56 0 0 1 504.64 800zM192 391.04m32 0l0 0q32 0 32-32l0-257.6q0-32-32-32l0 0q-32 0-32 32l0 257.6q0 32 32 32Z"  horiz-adv-x="1024" />

    
    <glyph glyph-name="yincang" unicode="&#58912;" d="M808 634.56a435.84 435.84 0 0 1-54.72 35.84 496.64 496.64 0 0 1-241.28 64C264.64 733.76 64 544 64 384c0-87.36 58.56-182.4 151.36-251.52l2.88-1.92a504.96 504.96 0 0 1 52.48-32 498.56 498.56 0 0 1 241.28-64C759.68 34.24 960 224 960 384c0 86.4-58.56 181.76-152 250.56zM512 98.24a433.28 433.28 0 0 0-192 46.72 416 416 0 0 0-56.64 33.92C180.48 235.52 128 313.92 128 384c0 114.88 160 285.76 384 285.76a427.52 427.52 0 0 0 194.24-46.4 393.6 393.6 0 0 0 56.32-34.24C845.76 529.6 896 448 896 384c0-114.88-160-285.76-384-285.76zM656.96 483.52a169.28 169.28 0 0 1-45.12 45.44 176 176 0 1 1-199.36-289.92 174.08 174.08 0 0 1 99.52-32 175.68 175.68 0 0 1 144.96 275.52zM512 272a110.08 110.08 0 0 0-53.12 13.44 112 112 0 1 0 151.68 151.68A110.08 110.08 0 0 0 624 384a112 112 0 0 0-112-112zM128-32a32 32 0 0 0-22.72 9.28 32 32 0 0 0 0 45.44l768 768a32 32 0 0 0 45.12-45.44l-768-768A32 32 0 0 0 128-32z"  horiz-adv-x="1024" />

    
    <glyph glyph-name="xihuan" unicode="&#58913;" d="M885.12 692.8a256 256 0 0 1-360.32 0l-12.8-9.92-11.2 11.2a257.6 257.6 0 0 1-360.64 0 249.28 249.28 0 0 1 0-356.16l192-189.12 136.32-135.04a64 64 0 0 1 89.92 0l137.28 135.36 192 188.8a249.6 249.6 0 0 1-2.56 354.88z m-45.12-310.72L768 310.08 648.64 192 512 57.92 375.68 192 256 310.08l-72 72a185.92 185.92 0 0 0 0 265.28 192 192 0 0 0 270.4 0l10.88-10.56 22.72-22.72a32 32 0 0 1 45.12 0l23.04 22.72 10.88 10.56a193.92 193.92 0 0 0 270.72 0 185.92 185.92 0 0 0 0-265.28zM409.628996 232.276405m-22.627417 22.627417l-135.764502 135.764502q-22.627417 22.627417 0 45.254834l0 0q22.627417 22.627417 45.254834 0l135.764502-135.764502q22.627417-22.627417 0-45.254834l0 0q-22.627417-22.627417-45.254834 0Z"  horiz-adv-x="1024" />

    


  </font>
</defs>
</svg>
